<svg width="50" height="50" viewBox="0 0 50 50" fill="none" xmlns="http://www.w3.org/2000/svg">
<g clip-path="url(#clip0_65_24)">
<path d="M3.125 25C3.125 30.8016 5.42968 36.3656 9.53204 40.468C13.6344 44.5703 19.1984 46.875 25 46.875C30.8016 46.875 36.3656 44.5703 40.468 40.468C44.5703 36.3656 46.875 30.8016 46.875 25C46.875 19.1984 44.5703 13.6344 40.468 9.53204C36.3656 5.42968 30.8016 3.125 25 3.125C19.1984 3.125 13.6344 5.42968 9.53204 9.53204C5.42968 13.6344 3.125 19.1984 3.125 25ZM50 25C50 31.6304 47.3661 37.9893 42.6777 42.6777C37.9893 47.3661 31.6304 50 25 50C18.3696 50 12.0107 47.3661 7.32233 42.6777C2.63392 37.9893 0 31.6304 0 25C0 18.3696 2.63392 12.0107 7.32233 7.32233C12.0107 2.63392 18.3696 0 25 0C31.6304 0 37.9893 2.63392 42.6777 7.32233C47.3661 12.0107 50 18.3696 50 25ZM25.4562 15.6C21.6687 15.6 19.4344 18.475 19.4344 23.4188V26.7312C19.4344 31.6406 21.6313 34.425 25.4562 34.425C28.5156 34.425 30.5844 32.5938 30.8594 29.9937H34.9062V30.2844C34.5938 34.8094 30.675 37.9938 25.4375 37.9938C18.9031 37.9938 15.2219 33.8188 15.2219 26.7344V23.3813C15.2219 16.3156 18.975 12.0125 25.4406 12.0125C30.6937 12.0125 34.6125 15.3062 34.9062 20.05V20.325H30.8594C30.5844 17.5781 28.4594 15.6 25.4562 15.6Z" fill="white"/>
</g>
<rect x="0.5" y="0.5" width="49" height="49" stroke="white"/>
<defs>
<clipPath id="clip0_65_24">
<rect width="50" height="50" fill="white"/>
</clipPath>
</defs>
</svg>
